<svg xmlns="http://www.w3.org/2000/svg" width="53.878" height="23.494" viewBox="0 0 53.878 23.494">
  <g id="Group_4" data-name="Group 4" transform="translate(-108.657 -9.807)">
    <path id="Path_11" data-name="Path 11" d="M161.363,14.141H144.7a17.367,17.367,0,0,0-8.693,2.191,15.859,15.859,0,0,0-4.412,3.87h26.338C163.813,13.576,162.949,14.141,161.363,14.141Z" fill="#dc051c"/>
    <path id="Path_12" data-name="Path 12" d="M144.652,22.418a8.183,8.183,0,0,1-3.251,3.637,9.384,9.384,0,0,1-4.84,1.226,9.95,9.95,0,0,1-5.224-1.371,9.339,9.339,0,0,1-3.565-3.9,12.823,12.823,0,0,1-1.275-5.851,12.794,12.794,0,0,1,1.275-5.875c.089-.174.223-.3.319-.463h0l.01-.012H112.434L108.657,14.6h10.971c-.041.511-.066,1.029-.066,1.558a17.47,17.47,0,0,0,2.24,8.861,16.038,16.038,0,0,0,6.115,6.092A17.346,17.346,0,0,0,136.61,33.3a17.163,17.163,0,0,0,9.9-2.865,15.018,15.018,0,0,0,5.9-8.018Z" fill="#dc051c"/>
  </g>
</svg>
