<svg id="Warstwa_1" data-name="Warstwa 1" xmlns="http://www.w3.org/2000/svg" viewBox="0 0 135.8 52.22"><defs><style>.cls-1{fill:#1d1d1b;}.cls-2{fill:#e52528;}</style></defs><title>logo</title><path class="cls-1" d="M88.9,84.37H80a9.34,9.34,0,0,0-4.65,1.17A8.4,8.4,0,0,0,73,87.62h14.1C90.21,84.07,89.75,84.37,88.9,84.37Z" transform="translate(-65.33 -50.81)"/><path class="cls-1" d="M137.55,82.59a2.21,2.21,0,0,0-1.58.6,2.1,2.1,0,0,0,0,3,2.21,2.21,0,0,0,1.58.61,2.24,2.24,0,0,0,1.59-.61,2.12,2.12,0,0,0,0-3A2.23,2.23,0,0,0,137.55,82.59Z" transform="translate(-65.33 -50.81)"/><path class="cls-1" d="M102,89.2a8.12,8.12,0,0,0-7.47,0,6.64,6.64,0,0,0-2.64,2.59,7.57,7.57,0,0,0-1,3.87,7.72,7.72,0,0,0,.94,3.86,6.58,6.58,0,0,0,2.59,2.59,7.53,7.53,0,0,0,3.71.92,7.83,7.83,0,0,0,3.78-.92,6.87,6.87,0,0,0,2.68-2.59,7.44,7.44,0,0,0,1-3.86,7.57,7.57,0,0,0-1-3.87A6.64,6.64,0,0,0,102,89.2ZM101.39,98A3.47,3.47,0,0,1,100,99.41a3.85,3.85,0,0,1-1.85.47,3.34,3.34,0,0,1-2.56-1.09,5.29,5.29,0,0,1,0-6.27,3.44,3.44,0,0,1,2.59-1.09,3.5,3.5,0,0,1,2.62,1.09,4.33,4.33,0,0,1,1.07,3.14A4.7,4.7,0,0,1,101.39,98Z" transform="translate(-65.33 -50.81)"/><path class="cls-1" d="M118.12,96.38a3.68,3.68,0,0,1-.85,2.61,3.06,3.06,0,0,1-2.35.92A3,3,0,0,1,112.6,99a3.73,3.73,0,0,1-.85-2.61V88.52h-3.6v8.37a6.92,6.92,0,0,0,.73,3.29,5,5,0,0,0,2,2.09,6.09,6.09,0,0,0,3,.7,5.67,5.67,0,0,0,2.43-.52,4.7,4.7,0,0,0,1.82-1.46v1.8h3.63V88.52h-3.63Z" transform="translate(-65.33 -50.81)"/><path class="cls-1" d="M128.92,90.73V88.52h-3.61v14.27h3.61V95.68a3,3,0,0,1,3.43-3.58h1V88.31a5,5,0,0,0-4.38,2.42Z" transform="translate(-65.33 -50.81)"/><rect class="cls-1" x="70.39" y="37.71" width="3.61" height="14.28"/><path class="cls-1" d="M152.77,89.16a8.14,8.14,0,0,0-7.38,0,6.26,6.26,0,0,0-2.53,2.57,8.14,8.14,0,0,0-.9,3.9,7.92,7.92,0,0,0,.91,3.86,6.42,6.42,0,0,0,2.55,2.59,7.49,7.49,0,0,0,3.7.92,7,7,0,0,0,4.31-1.33,6.54,6.54,0,0,0,2.37-3.39h-3.89A3,3,0,0,1,149,100a3.37,3.37,0,0,1-2.34-.88,3.49,3.49,0,0,1-1.08-2.42h10.44a9.65,9.65,0,0,0,.1-1.39,7.53,7.53,0,0,0-.89-3.7A6.12,6.12,0,0,0,152.77,89.16Zm-7.13,5.16a3.57,3.57,0,0,1,1.12-2.26,3.3,3.3,0,0,1,2.26-.81,3.58,3.58,0,0,1,2.4.84,2.86,2.86,0,0,1,1,2.23Z" transform="translate(-65.33 -50.81)"/><path class="cls-1" d="M162.4,90.73V88.52h-3.61v14.27h3.61V95.68a3,3,0,0,1,3.42-3.58h1V88.31a5.09,5.09,0,0,0-2.57.65A5,5,0,0,0,162.4,90.73Z" transform="translate(-65.33 -50.81)"/><polygon class="cls-1" points="115.18 41.4 107.48 41.4 107.48 34 103.87 34 103.87 51.99 107.48 51.99 107.48 44.33 115.18 44.33 115.18 51.99 118.79 51.99 118.79 34 115.18 34 115.18 41.4"/><path class="cls-1" d="M196.83,95.5a5.2,5.2,0,0,0,4.09-5.18,5.44,5.44,0,0,0-.73-2.8,5.19,5.19,0,0,0-2.2-2,7.9,7.9,0,0,0-3.56-.73h-6.75v18h3.6v-7H193l4,7h4.17Zm-2.53-2.42h-3V87.8h3a3.06,3.06,0,0,1,2.19.68,2.5,2.5,0,0,1,.72,1.92,2.64,2.64,0,0,1-.72,2A3,3,0,0,1,194.3,93.08Z" transform="translate(-65.33 -50.81)"/><path class="cls-1" d="M84.59,97.12a4.37,4.37,0,0,1-1.74,1.95,5,5,0,0,1-2.59.66A5.29,5.29,0,0,1,77.47,99a4.94,4.94,0,0,1-1.91-2.08,6.85,6.85,0,0,1-.69-3.14,6.76,6.76,0,0,1,.69-3.14c0-.09.12-.16.17-.25H67.35l-2,2.56H71.2c0,.27,0,.55,0,.83a9.39,9.39,0,0,0,1.2,4.75,8.63,8.63,0,0,0,3.28,3.26,9.87,9.87,0,0,0,9.94-.36,8.05,8.05,0,0,0,3.16-4.3Z" transform="translate(-65.33 -50.81)"/><path class="cls-2" d="M159,55.14H142.33a17.34,17.34,0,0,0-8.69,2.19,15.75,15.75,0,0,0-4.41,3.87h26.33C161.45,54.58,160.58,55.14,159,55.14Z" transform="translate(-65.33 -50.81)"/><path class="cls-2" d="M142.28,63.42A8.12,8.12,0,0,1,139,67.05a9.36,9.36,0,0,1-4.84,1.23A10,10,0,0,1,129,66.91a9.29,9.29,0,0,1-3.56-3.9,12.72,12.72,0,0,1-1.28-5.85,12.68,12.68,0,0,1,1.28-5.88c.08-.17.22-.3.31-.46H110.07l-3.78,4.79h11c0,.51-.07,1-.07,1.56A17.52,17.52,0,0,0,119.43,66a16.12,16.12,0,0,0,6.12,6.09,18.46,18.46,0,0,0,18.59-.67,15.08,15.08,0,0,0,5.9-8Z" transform="translate(-65.33 -50.81)"/></svg>