<svg xmlns="http://www.w3.org/2000/svg" width="1693.761" height="958.222" viewBox="0 0 1693.761 958.222">
  <g id="undraw_data_extraction_re_0rd3" transform="translate(0.001 0)" opacity="0.71">
    <path id="Path_51" data-name="Path 51" d="M224.842,663.776c3.318-26.678,19.851-52.964,45.294-61.646a123.863,123.863,0,0,0,.006,85.04c3.91,10.575,9.359,21.931,5.682,32.589-2.288,6.632-7.886,11.706-14.142,14.878s-13.2,4.685-20.059,6.167l-1.35,1.116C229.387,717.339,221.524,690.454,224.842,663.776Z" transform="translate(-178.342 212.742)" fill="#f0f0f0"/>
    <path id="Path_52" data-name="Path 52" d="M270.389,602.634a105.87,105.87,0,0,0-26.319,59.583,45.59,45.59,0,0,0,.519,14.275,26.148,26.148,0,0,0,6.5,12.128c2.931,3.221,6.3,6.175,8.4,10.052a16.011,16.011,0,0,1,.782,13.071c-1.852,5.311-5.5,9.64-9.218,13.749-4.126,4.563-8.484,9.236-10.238,15.285-.213.733-1.337.36-1.125-.371,3.052-10.524,13.268-16.5,18.14-25.981,2.273-4.423,3.228-9.558,1.1-14.227-1.864-4.083-5.338-7.133-8.334-10.368a27.9,27.9,0,0,1-6.8-11.622,42.148,42.148,0,0,1-1.065-14.2,102.712,102.712,0,0,1,7.5-31.214A107.747,107.747,0,0,1,269.6,601.746c.507-.567,1.287.325.784.889Z" transform="translate(-178.342 212.742)" fill="#fff"/>
    <path id="Path_53" data-name="Path 53" d="M244.388,655.047A15.884,15.884,0,0,1,232.3,638.408a.593.593,0,0,1,1.184.059,14.708,14.708,0,0,0,11.279,15.455c.742.176.366,1.3-.372,1.125Z" transform="translate(-178.342 212.742)" fill="#fff"/>
    <path id="Path_54" data-name="Path 54" d="M249.39,687.184a30.615,30.615,0,0,0,13.671-17.632c.215-.732,1.34-.36,1.125.371a31.844,31.844,0,0,1-14.264,18.319c-.657.39-1.186-.671-.533-1.058Z" transform="translate(-178.342 212.742)" fill="#fff"/>
    <path id="Path_55" data-name="Path 55" d="M255.97,622.538a8.991,8.991,0,0,0,8.52-.432c.652-.4,1.18.663.533,1.058a10.075,10.075,0,0,1-9.425.5.612.612,0,0,1-.377-.748.6.6,0,0,1,.748-.377Z" transform="translate(-178.342 137.289)" fill="#fff"/>
    <path id="Path_56" data-name="Path 56" d="M347.69,649.78c-.4.26-.8.52-1.2.79a118.4,118.4,0,0,0-15.14,11.82c-.37.33-.74.67-1.1,1.01a124.826,124.826,0,0,0-27.11,37.11,121.223,121.223,0,0,0-6.64,17.18c-2.45,8.13-4.46,17.14-9.31,23.79a20.8,20.8,0,0,1-1.62,2H241.739c-.1-.05-.2-.09-.3-.14l-1.75.08c.07-.31.15-.63.22-.94.04-.18.09-.36.13-.54.03-.12.06-.24.08-.35.01-.04.02-.08.03-.11.02-.11.05-.21.07-.31q.66-2.685,1.36-5.37c0-.01,0-.01.01-.02,3.59-13.63,8.35-27.08,15-39.38.2-.37.4-.75.62-1.12a115.675,115.675,0,0,1,10.39-15.76,102.261,102.261,0,0,1,6.81-7.79,85.036,85.036,0,0,1,21.28-15.94c15.72-8.3,33.92-11.48,50.72-6.41C346.839,649.51,347.26,649.64,347.69,649.78Z" transform="translate(-178.342 212.742)" fill="#f0f0f0"/>
    <path id="Path_57" data-name="Path 57" d="M347.591,650.337A105.87,105.87,0,0,0,290.7,682.065a45.591,45.591,0,0,0-8.181,11.71,26.148,26.148,0,0,0-2.109,13.6c.4,4.336,1.314,8.725.655,13.084a16.011,16.011,0,0,1-7.245,10.907c-4.676,3.126-10.2,4.385-15.638,5.429-6.042,1.159-12.335,2.267-17.377,6.04-.611.457-1.285-.517-.675-.974,8.773-6.566,20.529-5.188,30.126-9.823,4.478-2.163,8.332-5.688,9.441-10.7.97-4.382.033-8.909-.412-13.3a27.9,27.9,0,0,1,1.567-13.374,42.149,42.149,0,0,1,7.7-11.982,102.711,102.711,0,0,1,24.782-20.406A107.749,107.749,0,0,1,347.5,649.155c.746-.148.832,1.035.091,1.182Z" transform="translate(-178.342 212.742)" fill="#fff"/>
    <path id="Path_58" data-name="Path 58" d="M295.275,676.532a15.884,15.884,0,0,1,.364-20.565c.506-.57,1.416.189.91.76a14.708,14.708,0,0,0-.3,19.13c.486.587-.491,1.259-.974.675Z" transform="translate(-178.342 212.742)" fill="#fff"/>
    <path id="Path_59" data-name="Path 59" d="M279.92,705.2a30.615,30.615,0,0,0,21.531-5.847c.612-.455,1.286.519.675.974a31.844,31.844,0,0,1-22.418,6.039c-.759-.084-.543-1.25.212-1.166Z" transform="translate(-178.342 212.742)" fill="#fff"/>
    <path id="Path_60" data-name="Path 60" d="M324.1,657.547a8.991,8.991,0,0,0,7.064,4.785c.76.075.543,1.24-.212,1.166a10.075,10.075,0,0,1-7.826-5.276.612.612,0,0,1,.15-.824.6.6,0,0,1,.824.15Z" transform="translate(-178.342 212.742)" fill="#fff"/>
    <path id="Path_61" data-name="Path 61" d="M812.114,307.961h-141v-2h139v-93h2Z" transform="translate(850.447 157.699)" fill="#e4e4e4"/>
    <path id="Path_62" data-name="Path 62" d="M355.114,346.961h-2v-95h141v2h-139Z" transform="translate(427.594 186.579)" fill="#e4e4e4"/>
    <path id="Path_63" data-name="Path 63" d="M561.114,134.961h-141v-95h2v93h139Z" transform="translate(508.726)" fill="#e4e4e4"/>
    <path id="Path_680" data-name="Path 680" d="M570.4,154.52a2.855,2.855,0,0,0,0,5.71h57.919a2.855,2.855,0,0,0,0-5.71Z" transform="translate(246.183 -154.52)" fill="#3f3d56"/>
    <path id="Path_681" data-name="Path 681" d="M570.4,171.342a2.855,2.855,0,0,0,0,5.71h57.919a2.855,2.855,0,0,0,0-5.71Z" transform="translate(246.183 -154.52)" fill="#3f3d56"/>
    <path id="Path_683" data-name="Path 683" d="M1018.8,354.694a2.855,2.855,0,0,0,0-5.71H960.878a2.855,2.855,0,0,0,0,5.71Z" transform="translate(672.106 -32.488)" fill="#2f2e41"/>
    <path id="Path_684" data-name="Path 684" d="M1018.8,337.87a2.855,2.855,0,0,0,0-5.71H960.878a2.855,2.855,0,0,0,0,5.71Z" transform="translate(672.106 -43.046)" fill="#2f2e41"/>
    <path id="Path_64" data-name="Path 64" d="M773.456,490.48a107,107,0,1,1,107-107,107,107,0,0,1-107,107Zm0-212a105,105,0,1,0,105,105,105,105,0,0,0-105-105Z" transform="translate(481.291 -35.697)" fill="#e4e4e4"/>
    <circle id="Ellipse_7" data-name="Ellipse 7" cx="12" cy="12" r="12" transform="translate(1100.752 202.612)"/>
    <circle id="Ellipse_8" data-name="Ellipse 8" cx="12" cy="12" r="12" transform="translate(976.434 398.697)"/>
    <circle id="Ellipse_9" data-name="Ellipse 9" cx="12" cy="12" r="12" transform="translate(1335.122 487.677)"/>
    <path id="Path_683-2" data-name="Path 683" d="M503.108,514.267a2.855,2.855,0,0,0,0,5.71h57.925a2.855,2.855,0,0,0,0-5.71Z" transform="translate(172.789 71.232)" fill="#2f2e41"/>
    <path id="Path_684-2" data-name="Path 684" d="M503.108,531.09a2.855,2.855,0,0,0,0,5.71h57.925a2.855,2.855,0,0,0,0-5.71Z" transform="translate(172.789 81.789)" fill="#2f2e41"/>
    <path id="Path_65" data-name="Path 65" d="M360.233,744.912H345.678a6.911,6.911,0,0,1-6.9-6.9V616.7a6.911,6.911,0,0,1,6.9-6.9h14.555a6.911,6.911,0,0,1,6.9,6.9V738.01A6.911,6.911,0,0,1,360.233,744.912Z" transform="translate(-10.92 212.742)"/>
    <path id="Path_66" data-name="Path 66" d="M398.882,744.912H384.327a6.911,6.911,0,0,1-6.9-6.9V616.7a6.911,6.911,0,0,1,6.9-6.9h14.555a6.911,6.911,0,0,1,6.9,6.9V738.01a6.911,6.911,0,0,1-6.9,6.9Z" transform="translate(29.412 212.742)"/>
    <circle id="Ellipse_10" data-name="Ellipse 10" cx="50.293" cy="50.293" r="50.293" transform="translate(311.172 399.787)"/>
    <path id="Path_67" data-name="Path 67" d="M390.772,652.815H354.591a42.677,42.677,0,0,1-37.04-64.154l50.6-87.638a6.41,6.41,0,0,1,11.1,0L428.831,586.9a43.946,43.946,0,0,1-38.059,65.919Z" transform="translate(-20.834 134.68)" fill="#2f2e41"/>
    <path id="Path_68" data-name="Path 68" d="M385.571,454.513c3.26-.091,7.317-.2,10.443-2.487a8.02,8.02,0,0,0,3.156-5.989,5.4,5.4,0,0,0-1.835-4.431c-1.633-1.38-4.017-1.7-6.586-.948l2.662-19.452-1.954-.268-3.129,22.868,1.632-.749c1.892-.868,4.489-1.309,6.1.054a3.466,3.466,0,0,1,1.137,2.855,6.062,6.062,0,0,1-2.348,4.465c-2.432,1.777-5.667,2.006-9.335,2.109Z" transform="translate(34.027 21.024)" fill="#2f2e41"/>
    <rect id="Rectangle_81" data-name="Rectangle 81" width="10.622" height="1.972" transform="translate(454.258 435.702)" fill="#2f2e41"/>
    <rect id="Rectangle_82" data-name="Rectangle 82" width="10.622" height="1.972" transform="translate(386.488 435.702)" fill="#2f2e41"/>
    <path id="Path_69" data-name="Path 69" d="M361.871,641.566a6.845,6.845,0,0,1-.661-2.811l-2.479-90.337a14.18,14.18,0,1,1,28.354-.616l2.479,90.337a6.91,6.91,0,0,1-6.751,7.051l-14.551.316a6.919,6.919,0,0,1-6.39-3.94Z" transform="translate(10.474 136.152)"/>
    <path id="Path_70" data-name="Path 70" d="M369.034,396.224c6.11,7.991,15.811,13.352,26.063,12.082,9.763-1.209,17.817-8.013,19.838-17.756a29.258,29.258,0,0,0-7.689-25.827c-6.91-7.268-16.8-11.178-26.589-12.519-18.544-2.54-37.589,3.992-51.609,16.175a63.221,63.221,0,0,0-16.461,22.065,61.853,61.853,0,0,0-5.1,26.7c.539,18.12,8.476,36.206,22.171,48.223a62.494,62.494,0,0,0,5.333,4.177c1.562,1.1,3.042-1.468,1.493-2.555-14.025-9.839-22.971-25.847-25.426-42.668a59.093,59.093,0,0,1,13.858-47.669c11.325-12.877,27.93-21.246,45.128-22,17.306-.755,38.932,6.971,42.17,26.235,1.451,8.634-1.776,17.71-9.688,22.033-8.471,4.628-18.859,2.724-26.139-3.254a30.025,30.025,0,0,1-4.8-4.941c-1.141-1.492-3.712-.02-2.555,1.493Z" transform="translate(-29.015 -1.387)" fill="#2f2e41"/>
    <path id="Path_71" data-name="Path 71" d="M560.341,745.48h-381a1,1,0,1,1,0-2h381a1,1,0,0,1,0,2Z" transform="translate(-178.342 212.742)" fill="#3f3d56"/>
  </g>
</svg>
