<svg xmlns="http://www.w3.org/2000/svg" width="135.802" height="52.219" viewBox="0 0 135.802 52.219">
  <g id="Group_1" data-name="Group 1" transform="translate(-63.372 -9.807)">
    <path id="Path_1" data-name="Path 1" d="M86.947,43.372H78.029a9.3,9.3,0,0,0-4.652,1.172,8.486,8.486,0,0,0-2.361,2.071h14.1C88.258,43.069,87.8,43.372,86.947,43.372Z" fill="#161615"/>
    <path id="Path_2" data-name="Path 2" d="M100.057,48.2a8.089,8.089,0,0,0-7.474,0,6.716,6.716,0,0,0-2.641,2.59,7.6,7.6,0,0,0-.966,3.865,7.755,7.755,0,0,0,.94,3.867,6.59,6.59,0,0,0,2.59,2.59,7.529,7.529,0,0,0,3.711.914,7.8,7.8,0,0,0,3.776-.914,6.875,6.875,0,0,0,2.68-2.59,7.449,7.449,0,0,0,.992-3.867,7.588,7.588,0,0,0-.966-3.865A6.712,6.712,0,0,0,100.057,48.2Zm-.619,8.775A3.461,3.461,0,0,1,98.06,58.4a3.741,3.741,0,0,1-1.843.477,3.35,3.35,0,0,1-2.564-1.1,4.431,4.431,0,0,1-1.018-3.132,4.363,4.363,0,0,1,1.044-3.131,3.432,3.432,0,0,1,2.59-1.095,3.516,3.516,0,0,1,2.616,1.095,4.3,4.3,0,0,1,1.069,3.131A4.818,4.818,0,0,1,99.438,56.975Z" fill="#161615"/>
    <path id="Path_3" data-name="Path 3" d="M116.164,55.378a3.7,3.7,0,0,1-.85,2.615,3.047,3.047,0,0,1-2.346.915,3.008,3.008,0,0,1-2.318-.915,3.7,3.7,0,0,1-.851-2.615V47.517h-3.608v8.376a6.9,6.9,0,0,0,.734,3.286,4.989,4.989,0,0,0,2.023,2.087,6.044,6.044,0,0,0,2.964.709,5.63,5.63,0,0,0,2.435-.529,4.742,4.742,0,0,0,1.817-1.455v1.8H119.8V47.517h-3.634Z" fill="#161615"/>
    <path id="Path_4" data-name="Path 4" d="M126.963,49.733V47.517h-3.608V61.795h3.608V54.681a3.01,3.01,0,0,1,3.428-3.582h.953V47.31a4.968,4.968,0,0,0-4.381,2.423Z" fill="#161615"/>
    <path id="Path_5" data-name="Path 5" d="M135.6,41.589a2.2,2.2,0,0,0-1.585.606,2.114,2.114,0,0,0,0,3.015,2.376,2.376,0,0,0,3.17,0,2.116,2.116,0,0,0,0-3.015A2.2,2.2,0,0,0,135.6,41.589Z" fill="#161615"/>
    <rect id="Rectangle_1" data-name="Rectangle 1" width="3.607" height="14.278" transform="translate(133.766 47.517)" fill="#161615"/>
    <path id="Path_6" data-name="Path 6" d="M150.814,48.161a8.109,8.109,0,0,0-7.383.026,6.291,6.291,0,0,0-2.526,2.577,8.079,8.079,0,0,0-.9,3.891,7.95,7.95,0,0,0,.914,3.867,6.446,6.446,0,0,0,2.552,2.59,7.455,7.455,0,0,0,3.7.914,6.92,6.92,0,0,0,4.3-1.326,6.5,6.5,0,0,0,2.371-3.39H149.95a2.943,2.943,0,0,1-2.86,1.727,3.338,3.338,0,0,1-2.345-.876,3.549,3.549,0,0,1-1.082-2.423H154.1a8.6,8.6,0,0,0,.1-1.391,7.523,7.523,0,0,0-.889-3.7A6.172,6.172,0,0,0,150.814,48.161Zm-7.126,5.154a3.567,3.567,0,0,1,1.121-2.255,3.276,3.276,0,0,1,2.255-.811,3.559,3.559,0,0,1,2.4.838,2.86,2.86,0,0,1,1.005,2.228Z" fill="#161615"/>
    <path id="Path_7" data-name="Path 7" d="M160.44,49.733V47.517h-3.607V61.795h3.607V54.681a3.01,3.01,0,0,1,3.428-3.582h.953V47.31a4.971,4.971,0,0,0-4.381,2.423Z" fill="#161615"/>
    <path id="Path_8" data-name="Path 8" d="M178.557,51.2h-7.706v-7.4h-3.607V61.795h3.607V54.14h7.706v7.654h3.609V43.806h-3.609Z" fill="#161615"/>
    <path id="Path_9" data-name="Path 9" d="M194.87,54.5a5.294,5.294,0,0,0,3.066-1.971,5.353,5.353,0,0,0,1.032-3.209,5.422,5.422,0,0,0-.734-2.8,5.141,5.141,0,0,0-2.2-1.985,7.883,7.883,0,0,0-3.557-.734h-6.752V61.795h3.608V54.784h1.7L195,61.795h4.174Zm-2.525-2.422h-3.016V46.795h3.016a3.081,3.081,0,0,1,2.189.683,2.51,2.51,0,0,1,.722,1.92,2.63,2.63,0,0,1-.722,1.972A3.005,3.005,0,0,1,192.345,52.079Z" fill="#161615"/>
    <path id="Path_10" data-name="Path 10" d="M82.636,56.124a4.382,4.382,0,0,1-1.74,1.947,5.026,5.026,0,0,1-2.59.656,5.324,5.324,0,0,1-2.8-.734A4.993,4.993,0,0,1,73.6,55.9a7.558,7.558,0,0,1,0-6.275c.048-.093.12-.159.171-.248h0l0-.006H65.394L63.372,51.94h5.872c-.022.274-.036.551-.036.834a9.352,9.352,0,0,0,1.2,4.742,8.576,8.576,0,0,0,3.273,3.26,9.866,9.866,0,0,0,9.948-.36,8.042,8.042,0,0,0,3.157-4.292Z" fill="#161615"/>
  </g>
  <g id="Group_2" data-name="Group 2" transform="translate(-63.372 -9.807)">
    <path id="Path_11" data-name="Path 11" d="M161.363,14.141H144.7a17.367,17.367,0,0,0-8.693,2.191,15.859,15.859,0,0,0-4.412,3.87h26.338C163.813,13.576,162.949,14.141,161.363,14.141Z" fill="#dc051c"/>
    <path id="Path_12" data-name="Path 12" d="M144.652,22.418a8.183,8.183,0,0,1-3.251,3.637,9.384,9.384,0,0,1-4.84,1.226,9.95,9.95,0,0,1-5.224-1.371,9.339,9.339,0,0,1-3.565-3.9,12.823,12.823,0,0,1-1.275-5.851,12.794,12.794,0,0,1,1.275-5.875c.089-.174.223-.3.319-.463h0l.01-.012H112.434L108.657,14.6h10.971c-.041.511-.066,1.029-.066,1.558a17.47,17.47,0,0,0,2.24,8.861,16.038,16.038,0,0,0,6.115,6.092A17.346,17.346,0,0,0,136.61,33.3a17.163,17.163,0,0,0,9.9-2.865,15.018,15.018,0,0,0,5.9-8.018Z" fill="#dc051c"/>
  </g>
</svg>
