<svg xmlns="http://www.w3.org/2000/svg" width="128.658" height="18.579" viewBox="0 0 128.658 18.579">
  <g id="Group_72" data-name="Group 72" transform="translate(-37.285 -45)">
    <g id="Group_70" data-name="Group 70" transform="translate(81.872 48)">
      <path id="Path_1" data-name="Path 1" d="M80.878,43.37H75.358a5.754,5.754,0,0,0-2.88.726,5.254,5.254,0,0,0-1.462,1.282h8.726C81.69,43.182,81.4,43.37,80.878,43.37Z" transform="translate(-66.284 -42.266)" fill="#161615"/>
      <path id="Path_2" data-name="Path 2" d="M95.836,47.851a5.007,5.007,0,0,0-4.627,0,4.158,4.158,0,0,0-1.635,1.6,4.7,4.7,0,0,0-.6,2.393,4.8,4.8,0,0,0,.582,2.394,4.08,4.08,0,0,0,1.6,1.6,4.661,4.661,0,0,0,2.3.566,4.831,4.831,0,0,0,2.338-.566,4.256,4.256,0,0,0,1.659-1.6,4.612,4.612,0,0,0,.614-2.394,4.7,4.7,0,0,0-.6-2.393A4.155,4.155,0,0,0,95.836,47.851Zm-.383,5.432a2.143,2.143,0,0,1-.853.885,2.316,2.316,0,0,1-1.141.3,2.074,2.074,0,0,1-1.587-.678,2.743,2.743,0,0,1-.63-1.939,2.7,2.7,0,0,1,.646-1.938,2.125,2.125,0,0,1,1.6-.678,2.177,2.177,0,0,1,1.62.678,2.661,2.661,0,0,1,.662,1.938A2.983,2.983,0,0,1,95.453,53.284Z" transform="translate(-73.125 -43.759)" fill="#161615"/>
      <path id="Path_3" data-name="Path 3" d="M112.365,52.384A2.293,2.293,0,0,1,111.839,54a1.886,1.886,0,0,1-1.452.566A1.862,1.862,0,0,1,108.951,54a2.288,2.288,0,0,1-.527-1.619V47.517h-2.234V52.7a4.269,4.269,0,0,0,.454,2.034,3.089,3.089,0,0,0,1.252,1.292,3.742,3.742,0,0,0,1.835.439,3.485,3.485,0,0,0,1.507-.327,2.935,2.935,0,0,0,1.125-.9v1.117h2.25V47.517h-2.25Z" transform="translate(-79.683 -43.847)" fill="#161615"/>
      <path id="Path_4" data-name="Path 4" d="M125.589,48.81V47.438h-2.234v8.839h2.234v-4.4a1.863,1.863,0,0,1,2.122-2.218h.59V47.31a3.075,3.075,0,0,0-2.712,1.5Z" transform="translate(-86.221 -43.768)" fill="#161615"/>
      <path id="Path_5" data-name="Path 5" d="M134.751,41.589a1.359,1.359,0,0,0-.981.375,1.309,1.309,0,0,0,0,1.867,1.471,1.471,0,0,0,1.962,0,1.31,1.31,0,0,0,0-1.867A1.361,1.361,0,0,0,134.751,41.589Z" transform="translate(-90.039 -41.589)" fill="#161615"/>
      <rect id="Rectangle_1" data-name="Rectangle 1" width="2.233" height="8.839" transform="translate(43.579 3.67)" fill="#161615"/>
      <path id="Path_6" data-name="Path 6" d="M146.7,47.827a5.02,5.02,0,0,0-4.571.016,3.9,3.9,0,0,0-1.564,1.6A5,5,0,0,0,140,51.848a4.922,4.922,0,0,0,.566,2.394,3.991,3.991,0,0,0,1.58,1.6,4.615,4.615,0,0,0,2.289.566,4.284,4.284,0,0,0,2.664-.821,4.027,4.027,0,0,0,1.468-2.1h-2.409a1.822,1.822,0,0,1-1.771,1.069,2.066,2.066,0,0,1-1.452-.542,2.2,2.2,0,0,1-.67-1.5h6.461a5.324,5.324,0,0,0,.064-.861,4.657,4.657,0,0,0-.55-2.29A3.821,3.821,0,0,0,146.7,47.827Zm-4.412,3.191a2.208,2.208,0,0,1,.694-1.4,2.028,2.028,0,0,1,1.4-.5,2.2,2.2,0,0,1,1.484.519,1.771,1.771,0,0,1,.622,1.379Z" transform="translate(-92.563 -43.759)" fill="#161615"/>
      <path id="Path_7" data-name="Path 7" d="M159.066,48.81V47.438h-2.233v8.839h2.233v-4.4a1.863,1.863,0,0,1,2.122-2.218h.59V47.31a3.077,3.077,0,0,0-2.712,1.5Z" transform="translate(-98.974 -43.768)" fill="#161615"/>
      <path id="Path_8" data-name="Path 8" d="M174.247,48.385h-4.77V43.806h-2.233V54.942h2.233V50.2h4.77v4.739h2.235V43.806h-2.235Z" transform="translate(-102.939 -42.433)" fill="#161615"/>
      <path id="Path_9" data-name="Path 9" d="M191.385,50.427a3.277,3.277,0,0,0,1.9-1.22,3.314,3.314,0,0,0,.639-1.987,3.357,3.357,0,0,0-.454-1.731A3.183,3.183,0,0,0,192.1,44.26a4.88,4.88,0,0,0-2.2-.454h-4.18V54.943h2.234V50.6h1.053l2.458,4.34h2.584Zm-1.563-1.5h-1.867V45.656h1.867a1.907,1.907,0,0,1,1.355.423,1.554,1.554,0,0,1,.447,1.189,1.628,1.628,0,0,1-.447,1.221A1.86,1.86,0,0,1,189.822,48.928Z" transform="translate(-109.978 -42.434)" fill="#161615"/>
      <path id="Path_10" data-name="Path 10" d="M75.3,53.554a2.713,2.713,0,0,1-1.077,1.205,3.112,3.112,0,0,1-1.6.406,3.3,3.3,0,0,1-1.731-.454,3.091,3.091,0,0,1-1.181-1.293,4.679,4.679,0,0,1,0-3.885c.03-.058.074-.1.106-.154h0l0,0H64.624l-1.252,1.587h3.635c-.014.17-.022.341-.022.516a5.789,5.789,0,0,0,.742,2.936,5.309,5.309,0,0,0,2.026,2.018,6.108,6.108,0,0,0,6.159-.223,4.979,4.979,0,0,0,1.954-2.657Z" transform="translate(-63.372 -44.555)" fill="#161615"/>
    </g>
    <g id="Group_71" data-name="Group 71" transform="translate(37.285 45)">
      <path id="Path_11" data-name="Path 11" d="M155.135,14.138H141.956a13.734,13.734,0,0,0-6.874,1.733,12.541,12.541,0,0,0-3.489,3.06h20.828C157.073,13.692,156.389,14.138,155.135,14.138Z" transform="translate(-113.455 -10.711)" fill="#dc051c"/>
      <path id="Path_12" data-name="Path 12" d="M137.122,19.78a6.471,6.471,0,0,1-2.571,2.876,7.421,7.421,0,0,1-3.827.97,7.869,7.869,0,0,1-4.131-1.084,7.385,7.385,0,0,1-2.819-3.086,10.141,10.141,0,0,1-1.008-4.627,10.118,10.118,0,0,1,1.008-4.646c.07-.138.176-.235.252-.366h0l.008-.009H111.644l-2.987,3.79h8.676c-.032.4-.052.814-.052,1.232a13.815,13.815,0,0,0,1.771,7.007,12.683,12.683,0,0,0,4.836,4.818,13.717,13.717,0,0,0,6.874,1.733,13.573,13.573,0,0,0,7.826-2.266,11.877,11.877,0,0,0,4.666-6.341Z" transform="translate(-108.657 -9.807)" fill="#dc051c"/>
    </g>
  </g>
</svg>
